<?xml version="1.0" encoding="UTF-8" standalone="no"?>
<!DOCTYPE svg PUBLIC "-//W3C//DTD SVG 1.1//EN" "http://www.w3.org/Graphics/SVG/1.1/DTD/svg11.dtd">
<svg width="100%" height="100%" viewBox="0 0 1149 315" version="1.1" xmlns="http://www.w3.org/2000/svg" xmlns:xlink="http://www.w3.org/1999/xlink" xml:space="preserve" xmlns:serif="http://www.serif.com/" style="fill-rule:evenodd;clip-rule:evenodd;stroke-linejoin:round;stroke-miterlimit:1.41421;">
    <style type="text/css"><![CDATA[
      path {
        fill: #FF0151;
      }
    ]]></style>
    <g transform="matrix(1,0,0,1,-620,-466)">
        <g transform="matrix(1,0,0,1,630.609,671.747)">
            <g id="tighter" transform="matrix(1,0,0,1,-212.609,-292.747)">
                <g transform="matrix(1,0,0,1,60,0)">
                    <path d="M142,129L142,131C147.965,135.079 153.391,140.046 159,144.611C164.444,149.042 170.605,153.541 173.761,160C180.405,173.596 177,193.266 177,208L177,312C177,332.774 183.591,370.806 158,378.779C155.031,379.704 152.086,379.936 149,380L149,392L276,392L276,379C261.083,374.693 259.249,361.399 257.425,348C254.701,327.984 257,306.204 257,286C257,271.577 254.836,255.158 257.665,241C260.123,228.7 263.536,212.202 279,210.549C281.912,210.238 285.2,211.002 288,211.757C301.482,215.393 305.981,229.329 306.91,242C308.625,265.404 307,289.529 307,313C307,327.038 309.225,343.204 306.625,357C305.504,362.947 303.233,368.612 298.946,372.957C294.229,377.738 284.245,380.822 288.603,389.682C290.05,392.622 294.296,391.994 297,392L416,392L416,380C412.581,379.972 409.292,379.81 406,378.779C382.51,371.426 388,337.079 388,318L388,284C388,249.437 395.019,200.592 359,180.44C351.325,176.146 342.534,175.134 334,173.754C324.786,172.263 316.02,173.111 307,175.235C293.674,178.372 281.581,184.753 271,193.464C265.221,198.221 260.649,205.634 254,209L254,87C237.771,89.795 221.264,99.581 206,105.692C184.986,114.105 162.664,119.84 142,129Z" style="fill-rule:nonzero;"/>
                </g>
                <g transform="matrix(1,0,0,1,10,0)">
                    <path d="M1068,128C1069.62,133.746 1074.5,136.801 1079,140.4C1087.37,147.103 1097.82,153.972 1100.5,165C1104.96,183.406 1102,205.141 1102,224L1102,337C1102,353.349 1101.41,373.042 1083,378.779C1080.03,379.704 1077.09,379.936 1074,380L1074,392L1201,392L1201,379C1186.08,374.693 1184.25,361.399 1182.43,348C1179.7,327.984 1182,306.204 1182,286C1182,271.577 1179.84,255.158 1182.67,241C1185.84,225.097 1192.73,206.14 1213,211.606C1226.95,215.369 1231.01,230.125 1231.91,243C1233.55,266.427 1232,290.511 1232,314C1232,327.724 1234.17,343.513 1231.62,357C1230.57,362.581 1228.46,368.506 1224.52,372.699C1219.81,377.726 1209,380.327 1213.6,389.682C1215.05,392.622 1219.3,391.994 1222,392L1341,392L1341,380C1337.58,379.972 1334.29,379.81 1331,378.779C1307.29,371.357 1313,336.23 1313,317L1313,283C1313,248.278 1319.88,199.376 1283,179.89C1275.27,175.806 1266.52,174.8 1258,173.579C1248.7,172.248 1240.07,173.436 1231,175.499C1217.73,178.518 1205.31,185.459 1195,194.3C1189.64,198.898 1185.29,205.813 1179,209L1179,87C1166.68,89.122 1154.5,96.221 1143,100.988C1127.54,107.399 1111.8,113.019 1096,118.505C1086.73,121.724 1077.58,125.784 1068,128Z" style="fill-rule:nonzero;"/>
                </g>
                <g transform="matrix(1,0,0,1,40,0)">
                    <path d="M680,198C686.332,198 692.669,197.915 699,198.004C701.338,198.036 704.567,197.832 706.307,199.742C708.557,202.213 707.001,208.865 707,212L707,245C707,267.32 706.937,289.712 705.961,312C704.785,338.852 703.411,370.919 727,389.482C749.232,406.978 784.927,402.686 809,391.445C816.453,387.965 828.984,382.576 832.972,374.961C834.763,371.541 834,366.739 834,363C824.398,363.838 817.725,368.611 808,364.521C795.879,359.423 791.975,346.685 789.349,335C786.671,323.077 787,310.188 787,298L787,252L787,215C787,210.935 785.669,203.852 788.028,200.318C790.321,196.882 796.48,198 800,198L822,198C825.123,198 829.697,198.812 832.581,197.397C837.064,195.197 839.222,182.578 840,178C826.652,179.09 814.644,183.446 801,182.17C797.515,181.844 792.371,183.01 789.318,180.972C784.596,177.822 787,164.016 787,159L787,95C781.501,96.543 777.949,101.051 774,105C768.814,110.185 763.241,114.902 758,120.015C742.032,135.591 726.54,151.864 710,166.83C703.133,173.044 696.552,179.448 690,186C686.259,189.742 682.253,193.168 680,198Z" style="fill-rule:nonzero;"/>
                </g>
                <g transform="matrix(1,0,0,1,20,0)">
                    <path d="M1056,339C1047.95,341.191 1041.87,348.432 1034,351.535C1014.02,359.419 989.456,353.801 972,342.456C937.839,320.253 925.985,279.663 926,241C926.006,224.782 929.115,202.605 944.001,192.969C957.73,184.082 976.343,188.623 981.561,205C988.308,226.178 977.08,262.734 1006,271.061C1010.15,272.255 1014.72,272.155 1019,271.961C1024.5,271.711 1030.27,270.068 1035,267.236C1063.63,250.104 1050.3,208.73 1029,192.015C1016.46,182.172 1002.54,177.058 987,174.562C947.127,168.157 908.2,181.72 881.174,212C845.896,251.525 842.548,324.502 878.184,365C900.642,390.522 930.003,400 963,400C982.597,400 1001.73,396.843 1019,386.999C1028.32,381.689 1036.95,375.853 1045,368.714C1048.75,365.379 1053.67,360.846 1055.4,356C1057.17,351.05 1056,344.207 1056,339Z" style="fill-rule:nonzero;"/>
                </g>
                <g transform="matrix(1,0,0,1,60,0)">
                    <path d="M564,365C572.251,394.927 605.096,402.453 632,396.424C642.822,393.999 658.686,387.568 663.972,377C665.841,373.264 665,368.062 665,364C662.431,364.679 659.699,365.857 657,365.682C647.23,365.047 644.169,353.795 642.6,346C638.604,326.146 641,304.214 641,284C641,270.603 641.003,257.338 640.089,244C639.426,234.309 638.976,224.118 635.124,215C619.416,177.811 567.41,170.662 532,173.09C499.306,175.331 457.946,190.938 449.127,226C448.047,230.292 446.841,234.529 447.093,239C447.564,247.328 449.291,255.635 455.301,261.815C466.337,273.163 488.6,271.311 498.815,259.985C507.864,249.951 507.296,236.661 506.985,224C506.742,214.066 505.745,206.087 513.301,198.174C525.041,185.878 545.906,187.588 554.015,203C559.429,213.291 560,225.633 560,237C560,241.584 560.896,247.103 556.852,250.298C554.096,252.474 550.189,253.288 547,254.654C539.054,258.06 531.027,261.29 523,264.508C508.636,270.266 494.589,277.325 481,284.691C464.892,293.424 448.319,304.506 439.312,321C424.948,347.307 433.85,381.155 461,394.73C473.588,401.024 489.201,401.149 503,399.83C519.415,398.262 534.352,390.95 547,380.536C552.942,375.644 557.699,369.438 564,365ZM559,267C531.513,271.9 521,304.011 521,328C521,336.725 520.519,345.534 526.055,352.907C532.222,361.121 546.905,363.021 553.297,353.956C557.23,348.379 557.823,338.641 557.985,332C558.19,323.647 558.999,315.341 559,307L559,267Z" style=""/>
                </g>
            </g>
        </g>
    </g>
</svg>
